<svg version="1.1" id="Layer_1" xmlns="http://www.w3.org/2000/svg" xmlns:xlink="http://www.w3.org/1999/xlink" x="0px" y="0px" width="100%" viewBox="0 0 96 96" enable-background="new 0 0 96 96" xml:space="preserve">

<path fill="#F44538" opacity="1.000000" stroke="none" d="
M77.831711,33.065186 
	C78.220093,35.944500 79.229050,38.898418 78.893387,41.690689 
	C77.086304,56.722870 74.945190,71.714890 72.905266,86.825165 
	C56.839287,86.825165 41.242012,86.825165 25.117611,86.825165 
	C23.741999,76.806664 22.300564,66.842133 21.029163,56.855953 
	C20.222727,50.521835 19.460135,44.166203 19.134581,37.796875 
	C19.041346,35.972736 20.541109,34.067181 22.040121,32.077980 
	C24.903429,33.088104 27.037054,34.219208 29.130253,35.771286 
	C30.410883,51.667027 31.731943,67.141785 33.053219,82.619049 
	C37.016144,82.619049 40.264259,82.619049 42.769623,82.619049 
	C42.769623,66.952423 42.769623,51.560165 42.930344,35.832115 
	C47.659008,30.471359 51.218498,30.666128 55.220596,36.618610 
	C55.215282,52.253498 55.215282,67.430092 55.215282,82.605804 
	C58.022720,82.605804 61.277477,82.605804 65.037331,82.605804 
	C66.312454,66.706017 67.568878,51.039360 69.036194,35.062607 
	C71.541489,31.304628 74.610611,31.798309 77.831711,33.065186 
z" data-index="1" style="opacity: 1; visibility: visible;"></path>
<path fill="#F9E030" opacity="1.000000" stroke="none" d="
M29.170681,35.350311 
	C27.037054,34.219208 24.903429,33.088104 22.383389,31.898533 
	C18.376635,21.818668 23.630163,12.047481 34.248886,12.984215 
	C36.909302,13.218904 39.087311,13.081092 40.725464,10.011552 
	C42.499001,6.688335 48.242836,6.195008 52.318443,7.692929 
	C54.657223,8.552507 57.316727,9.017607 59.797989,8.906207 
	C64.198860,8.708625 67.394859,9.518197 67.233032,14.728762 
	C76.296509,14.957986 81.425064,22.575420 78.010483,32.676910 
	C74.610611,31.798309 71.541489,31.304628 68.751953,34.830933 
	C63.124287,30.478531 59.404003,30.835678 55.225914,36.160316 
	C51.218498,30.666128 47.659008,30.471359 42.695438,35.575188 
	C38.053207,30.658876 34.367359,30.573605 29.170681,35.350311 
M53.474670,21.034128 
	C57.886253,23.235041 62.297836,25.435951 67.146469,27.854904 
	C68.348061,23.018595 65.227654,21.743435 62.290768,20.359324 
	C60.088108,19.321241 57.692913,18.573092 55.704472,17.223021 
	C51.132797,14.119047 46.210110,14.603256 42.101654,18.371162 
	C40.289669,20.032951 37.839199,21.096313 35.532551,22.093525 
	C33.213936,23.095911 30.765696,23.716702 31.687304,27.353329 
	C34.291119,26.961285 36.732883,26.067905 39.006699,26.383720 
	C41.879845,26.782780 43.170319,26.103109 44.248337,23.390106 
	C45.864948,19.321646 48.778259,17.710230 53.474670,21.034128 
z" data-index="2"></path>
<path fill="#E2F1F8" opacity="1.000000" stroke="none" d="
M55.220596,36.618610 
	C59.404003,30.835678 63.124287,30.478531 68.541061,35.141026 
	C67.568878,51.039360 66.312454,66.706017 65.037331,82.605804 
	C61.277477,82.605804 58.022720,82.605804 55.215282,82.605804 
	C55.215282,67.430092 55.215282,52.253498 55.220596,36.618610 
z" data-index="3" style="opacity: 1;"></path>
<path fill="#E2F1F8" opacity="1.000000" stroke="none" d="
M29.130253,35.771286 
	C34.367359,30.573605 38.053207,30.658876 42.534714,35.910980 
	C42.769623,51.560165 42.769623,66.952423 42.769623,82.619049 
	C40.264259,82.619049 37.016144,82.619049 33.053219,82.619049 
	C31.731943,67.141785 30.410883,51.667027 29.130253,35.771286 
z" data-index="4" style="opacity: 1; visibility: visible;"></path>
<path fill="#FFBA29" opacity="1.000000" stroke="none" d="
M53.193756,20.775265 
	C48.778259,17.710230 45.864948,19.321646 44.248337,23.390106 
	C43.170319,26.103109 41.879845,26.782780 39.006699,26.383720 
	C36.732883,26.067905 34.291119,26.961285 31.687304,27.353329 
	C30.765696,23.716702 33.213936,23.095911 35.532551,22.093525 
	C37.839199,21.096313 40.289669,20.032951 42.101654,18.371162 
	C46.210110,14.603256 51.132797,14.119047 55.704472,17.223021 
	C57.692913,18.573092 60.088108,19.321241 62.290768,20.359324 
	C65.227654,21.743435 68.348061,23.018595 67.146469,27.854904 
	C62.297836,25.435951 57.886253,23.235041 53.193756,20.775265 
z" data-index="5"></path>
</svg>